<svg version="1.0" xmlns="http://www.w3.org/2000/svg"
 width="300.000000pt" height="282.000000pt" viewBox="0 0 300.000000 282.000000"
 preserveAspectRatio="xMidYMid meet">
<g transform="translate(0.000000,282.000000) scale(0.100000,-0.100000)"
fill="#000000" stroke="none">
<path d="M1425 2625 c-23 -22 -25 -32 -25 -118 0 -79 3 -98 20 -120 23 -29 21
-32 -35 -42 -93 -16 -226 -94 -282 -163 -67 -83 -103 -191 -103 -307 1 -127
33 -213 125 -330 114 -146 122 -171 135 -429 1 -10 8 -32 16 -47 16 -32 14
-33 -36 -19 -19 6 -73 15 -120 20 -100 11 -186 1 -350 -41 -224 -58 -248 -67
-288 -110 -20 -22 -54 -49 -74 -59 -26 -14 -79 -76 -190 -222 -191 -253 -198
-263 -198 -287 0 -11 10 -27 22 -35 20 -14 96 -16 623 -16 361 0 614 -4 634
-10 27 -7 49 -5 103 11 l69 21 65 -22 c52 -17 71 -20 95 -11 20 7 241 11 637
11 523 0 609 2 629 15 13 9 23 24 23 34 0 31 -27 85 -55 111 -15 14 -88 105
-162 203 -96 128 -144 183 -166 192 -18 7 -50 33 -72 58 -44 49 -43 48 -290
112 -109 29 -167 38 -260 42 -117 5 -138 3 -264 -33 -21 -6 -22 -5 -12 15 7
12 9 30 6 41 -4 12 2 31 16 49 16 21 20 38 17 63 -7 42 19 172 43 219 9 19 34
55 55 80 116 138 154 230 154 367 0 147 -45 256 -142 349 -68 64 -127 98 -208
119 -36 9 -71 18 -78 20 -10 3 -8 11 7 30 18 23 21 41 21 119 0 78 -3 96 -21
119 -26 33 -53 33 -84 1z m65 -120 l0 -105 -25 0 -25 0 0 105 0 105 25 0 25 0
0 -105z m95 -210 c66 -20 159 -79 204 -130 47 -54 91 -152 101 -227 20 -137
-23 -268 -127 -388 -67 -78 -102 -149 -113 -231 -5 -34 -11 -63 -14 -66 -20
-20 -200 -30 -299 -17 l-45 6 -7 67 c-8 83 -38 145 -116 241 -34 41 -75 104
-93 140 -29 62 -31 71 -31 185 0 116 1 123 34 193 51 108 146 187 276 228 56
18 167 17 230 -1z m63 -1102 c-5 -43 -40 -54 -185 -55 -152 -2 -169 2 -175 42
l-5 30 96 -6 c53 -3 130 -1 171 4 41 5 81 10 88 11 9 1 12 -8 10 -26z m-188
-87 c70 -2 124 -8 139 -15 l23 -13 -20 -21 c-18 -18 -34 -20 -131 -21 l-110
-1 -35 34 c-43 42 -46 56 -8 46 15 -4 79 -8 142 -9z m-225 -98 c75 -24 142
-67 192 -121 l39 -42 54 53 c101 99 220 138 396 130 88 -5 147 -15 304 -56
115 -30 199 -57 205 -66 56 -84 68 -96 79 -87 6 5 18 6 25 2 7 -5 77 -93 155
-197 77 -104 150 -193 162 -199 11 -6 19 -16 16 -23 -2 -8 6 -24 19 -38 l22
-24 -539 -1 c-296 0 -593 -4 -658 -8 -108 -8 -124 -6 -164 12 -52 22 -119 19
-172 -8 -25 -13 -38 -14 -62 -6 -21 7 -236 11 -649 11 l-618 0 102 133 c56 73
138 181 182 240 54 72 88 109 105 113 14 4 45 28 70 54 45 48 46 49 205 91 88
23 194 47 235 54 94 16 217 8 295 -17z m314 -27 c0 -3 -18 -21 -40 -38 l-41
-33 -46 38 -45 37 74 5 c75 5 99 3 98 -9z"/>
<path d="M1278 1839 c-43 -24 -12 -88 57 -120 35 -16 38 -32 50 -266 7 -117
11 -143 23 -143 13 0 14 18 9 128 -4 70 -10 157 -13 195 l-7 67 72 0 73 0 -6
-27 c-6 -28 -26 -285 -26 -335 0 -18 5 -28 15 -28 8 0 15 6 15 13 0 44 21 337
26 359 3 18 15 30 35 37 37 13 79 55 79 79 0 10 -9 27 -20 37 -34 31 -71 11
-95 -53 l-20 -52 -79 2 -79 3 -14 40 c-13 40 -45 75 -67 75 -6 0 -19 -5 -28
-11z"/>
<path d="M795 450 c-108 -8 -576 -79 -587 -89 -6 -6 940 -4 1042 2 l45 3 -55
26 c-106 52 -258 71 -445 58z m168 -47 c-29 -2 -78 -2 -110 0 -32 2 -8 3 52 3
61 0 87 -1 58 -3z"/>
<path d="M1800 432 c-82 -24 -132 -45 -147 -63 -10 -12 68 -14 542 -14 304 0
551 3 548 8 -2 4 -14 7 -26 7 -12 0 -123 16 -247 36 -183 29 -260 36 -415 40
-163 3 -199 1 -255 -14z m258 -29 c-26 -2 -71 -2 -100 0 -29 2 -8 3 47 3 55 0
79 -1 53 -3z"/>
<path d="M1070 2505 c-21 -22 -22 -28 -12 -62 16 -54 64 -126 95 -142 24 -13
29 -12 48 5 40 36 42 51 14 112 -49 106 -99 136 -145 87z m94 -70 c40 -68 43
-100 12 -100 -26 0 -100 133 -84 152 19 24 34 13 72 -52z"/>
<path d="M1768 2503 c-14 -16 -38 -52 -53 -81 -31 -60 -28 -93 9 -118 22 -14
28 -14 53 -1 34 18 103 130 103 168 0 59 -68 78 -112 32z m78 -16 c8 -23 -70
-152 -95 -155 -30 -5 -28 30 5 87 45 78 77 102 90 68z"/>
<path d="M822 2257 c-27 -29 -28 -47 -1 -81 25 -32 116 -86 145 -86 28 0 64
36 64 64 0 27 -50 75 -110 106 -51 26 -72 25 -98 -3z m118 -54 c61 -39 69 -50
49 -70 -22 -22 -163 64 -153 92 10 24 40 17 104 -22z"/>
<path d="M1985 2242 c-90 -57 -107 -110 -49 -148 23 -15 27 -15 80 12 51 26
124 92 124 113 0 4 -9 20 -21 35 -28 36 -62 33 -134 -12z m113 -18 c2 -14 -15
-30 -63 -61 -72 -48 -77 -49 -95 -27 -17 19 -7 30 75 79 63 38 78 40 83 9z"/>
<path d="M695 1935 c-32 -31 -32 -55 1 -86 23 -22 34 -24 114 -24 80 0 91 2
114 24 32 30 33 61 3 89 -20 19 -35 22 -116 22 -84 0 -94 -2 -116 -25z m222
-31 c11 -29 -15 -39 -107 -39 -92 0 -116 9 -104 38 9 24 201 25 211 1z"/>
<path d="M2005 1935 c-32 -31 -32 -55 1 -86 23 -22 34 -24 114 -24 80 0 91 2
114 24 32 30 33 61 3 89 -20 19 -35 22 -116 22 -84 0 -94 -2 -116 -25z m222
-31 c11 -29 -15 -39 -107 -39 -92 0 -116 9 -104 38 9 24 201 25 211 1z"/>
<path d="M900 1679 c-69 -38 -110 -77 -110 -104 0 -28 35 -65 63 -65 48 0 177
96 177 132 0 12 -55 68 -67 68 -4 0 -33 -14 -63 -31z m87 -24 c8 -22 -19 -48
-86 -84 -50 -27 -60 -29 -71 -16 -16 20 -7 31 64 76 67 43 84 47 93 24z"/>
<path d="M1930 1680 c-40 -40 -14 -90 74 -140 75 -43 118 -37 139 21 10 29
-28 74 -90 107 -70 37 -95 40 -123 12z m121 -57 c39 -22 59 -40 59 -53 0 -33
-19 -32 -84 4 -73 41 -89 57 -80 80 8 21 27 15 105 -31z"/>
</g>
</svg>
